# xmcd CD database file
#
# Track frame offsets:
#	150
#	12413
#	40564
#	66494
#	100322
#	119645
#	138327
#	154071
#	195853
#	205593
#	231960
#
# Disc length: 3347 seconds
#
# Revision: 0
# Processed by: cddbd v1.4PL0 Copyright (c) Steve Scherf et al.
# Submitted via: CDex 1.51
#
DISCID=910d110b
DTITLE=The Bert van den Brink Trio with Rick Margitza - Conversations
DYEAR=1999
DGENRE=Jazz
TTITLE0=You Must Believe In Spring
TTITLE1=Naima
TTITLE2=La Chanson Des Vieux Amants
TTITLE3=His Eyes, Her Eyes
TTITLE4=Al The Things You Are
TTITLE5=A Child Is Born
TTITLE6=Secret Love
TTITLE7=The Look Of Love
TTITLE8=Emily
TTITLE9=Brother, Can You Spare Me A Dime
TTITLE10=A House Is Not A Home
EXTD=YEAR: 1999
EXTT0=
EXTT1=
EXTT2=
EXTT3=
EXTT4=
EXTT5=
EXTT6=
EXTT7=
EXTT8=
EXTT9=
EXTT10=
PLAYORDER=
